<svg id="Capa_1" enable-background="new 0 0 512 512" height="512" viewBox="0 0 512 512" width="512" xmlns="http://www.w3.org/2000/svg"><g><path d="m421 405v92c0 8.399-6.599 15-15 15h-61.8l-88.2-47-88.2 47h-61.8c-8.401 0-15-6.601-15-15v-92c0-57.9 47.1-105 105-105h120c57.9 0 105 47.1 105 105z" fill="#fabe2c"/><path d="m421 405v92c0 8.399-6.599 15-15 15h-61.8l-88.2-47v-165h60c57.9 0 105 47.1 105 105z" fill="#ff9100"/><path d="m372.4 365.099c-2.999-3.3-7.2-5.099-11.4-5.099h-210c-4.2 0-8.401 1.8-11.4 5.099-2.699 3.3-3.9 7.5-3.6 11.7l16.8 135.201h206.4l16.8-135.2c.3-4.201-.901-8.401-3.6-11.701z" fill="#575f64"/><path d="m391 180c0 16.5-13.5 30-30 30h-4.501c-16.8 67.2-92.999 88.5-96.599 89.399-1.199.3-2.701.601-3.9.601s-2.701-.3-3.9-.601c-3.6-.899-79.799-22.2-96.599-89.399h-4.501c-16.5 0-30-13.5-30-30 0-19.801 4.501-39.3 13.5-56.7l16.5-33.3h210l16.5 33.3c8.999 17.4 13.5 36.899 13.5 56.7z" fill="#ffe0d6"/><path d="m391 180c0 16.5-13.5 30-30 30h-4.501c-16.8 67.2-92.999 88.5-96.599 89.399-1.199.3-2.701.601-3.9.601v-210h105l16.5 33.3c8.999 17.4 13.5 36.899 13.5 56.7z" fill="#fdcdbf"/><path d="m376 376.8-16.8 135.2h-103.2v-152h105c4.2 0 8.401 1.8 11.4 5.099 2.699 3.3 3.9 7.5 3.6 11.701z" fill="#474f54"/><path d="m121 180c0-16.5 13.5-30 30-30 3.021 0 48.021 0 45 0 8.291 0 15-6.709 15-15 0-11.455 4.468-22.632 12.261-30.659 3.252-3.354 4.761-8.042 4.072-12.671-.703-4.614-3.501-8.657-7.603-10.913-14.956-8.232-26.748-21.548-33.237-37.515-1.875-4.6-5.918-7.983-10.781-9.023-4.907-1.025-9.932.41-13.506 3.853-26.191 25.151-41.206 60.483-41.206 96.928z" fill="#474f54"/><path d="m391 135v45c0-16.5-13.5-30-30-30 0 0-42.001 0-45 0-8.401 0-15-6.601-15-15 0-5.101-.901-10.201-2.701-15h-42.299c-17.701 0-34.501-4.2-50.7-12.9-21-11.7-37.5-30.3-46.5-52.5-5.099-12.9-7.8-26.1-7.8-39.6 0-3.9 1.5-7.8 4.501-10.499 2.699-3.001 6.599-4.501 10.499-4.501h90c74.399 0 135 60.601 135 135z" fill="#575f64"/><path d="m391 135v45c0-16.5-13.5-30-30-30 0 0-42.001 0-45 0-8.401 0-15-6.601-15-15 0-5.101-.901-10.201-2.701-15h-42.299v-120c74.399 0 135 60.601 135 135z" fill="#474f54"/><circle cx="256" cy="435" fill="#f0f7ff" r="15"/><path d="m271 435c0 8.399-6.599 15-15 15v-30c8.401 0 15 6.599 15 15z" fill="#dfe7f4"/></g></svg>